<?xml version="1.0" standalone="no"?>
<!DOCTYPE svg PUBLIC "-//W3C//DTD SVG 20010904//EN"
 "http://www.w3.org/TR/2001/REC-SVG-20010904/DTD/svg10.dtd">
<svg version="1.0" xmlns="http://www.w3.org/2000/svg"
 width="536.000000pt" height="536.000000pt" viewBox="0 0 536.000000 536.000000"
 preserveAspectRatio="xMidYMid meet">
<metadata>
Created by potrace 1.11, written by Peter Selinger 2001-2013
</metadata>
<g transform="translate(0.000000,536.000000) scale(0.100000,-0.100000)"
fill="#000000" stroke="none">
<path d="M10 2680 l0 -2670 2675 0 2675 0 0 2670 0 2670 -2675 0 -2675 0 0
-2670z m626 2643 c-6 -20 -606 -3184 -606 -3196 0 -4 155 -7 344 -7 l344 0 6
28 c13 63 246 1320 246 1326 0 3 266 6 590 6 l590 0 -5 -22 c-11 -45 -245
-1312 -245 -1325 0 -10 69 -13 341 -13 l341 0 -4 -22 c-2 -13 -92 -485 -199
-1050 l-194 -1028 -1082 0 -1083 0 0 2660 0 2660 311 0 c291 0 310 -1 305 -17z
m1864 10 c-1 -5 -54 -285 -118 -623 l-118 -615 -579 -3 c-318 -1 -582 1 -585
5 -5 6 105 598 225 1211 l6 32 584 0 c322 0 585 -3 585 -7z m2850 -1038 l0
-1045 -344 0 -345 0 -10 -52 c-6 -29 -58 -303 -116 -608 -58 -305 -107 -565
-110 -577 l-5 -23 -585 0 c-322 0 -585 2 -585 4 0 6 229 1209 235 1234 l5 22
-345 0 c-325 0 -346 1 -341 18 2 9 91 474 196 1032 105 558 193 1021 195 1028
4 9 228 12 1080 12 l1075 0 0 -1045z m-3 -4272 c-2 -2 -139 -2 -303 -1 l-300
3 278 1460 c152 803 287 1514 300 1580 l23 120 3 -1579 c1 -869 0 -1581 -1
-1583z m-1047 1341 c0 -18 -237 -1298 -246 -1326 -5 -17 -42 -18 -590 -18
-437 0 -584 3 -584 12 0 11 235 1280 245 1326 l5 22 585 0 c534 0 585 -1 585
-16z"/>
</g>
</svg>
